PathFileType	4	(X/Y/Z) shrug_2kg_3.trc																										
DataRate	CameraRate	NumFrames	NumMarkers	Units	OrigDataRate	OrigDataStartFrame	OrigNumFrames																					
100	100	34	9	mm	100	1	556																					
Frame#	Time	gu			centelbow			EpL			centpxt8			centijc7			ij			ts			aa			ai		
		X1	Y1	Z1	X2	Y2	Z2	X3	Y3	Z3	X4	Y4	Z4	X5	Y5	Z5	X6	Y6	Z6	X7	Y7	Z7	X8	Y8	Z8	X9	Y9	Z9  
0	0	-99.626	-9.668	162.834	-155.615	-249.629	179.208	-140.869	-247.012	207.759	-46.816	-153.158	-8.669	-46.816	31.938	-8.669	0	0	0	-134.778	39.812	43.782	-120.783	29.576	161.782	-166.976	-69.04	43.426
1	0.01	-99.815	-9.705	162.933	-155.834	-249.652	179.409	-141.095	-247.023	207.962	-46.816	-153.158	-8.669	-46.816	31.938	-8.669	0	0	0	-134.998	39.821	43.748	-121.015	29.629	161.754	-167.191	-69.033	43.429
2	0.02	-99.979	-9.767	162.964	-156.022	-249.702	179.539	-141.286	-247.061	208.093	-46.816	-153.158	-8.669	-46.816	31.938	-8.669	0	0	0	-135.271	39.899	43.702	-121.293	29.749	161.712	-167.443	-68.961	43.417
3	0.03	-100.052	-9.794	163.05	-156.091	-249.725	179.706	-141.362	-247.072	208.262	-46.816	-153.158	-8.669	-46.816	31.938	-8.669	0	0	0	-135.388	40.052	43.717	-121.434	29.938	161.734	-167.51	-68.823	43.452
4	0.04	-100.103	-9.736	163.198	-156.127	-249.665	179.915	-141.41	-247.001	208.476	-46.816	-153.158	-8.669	-46.816	31.938	-8.669	0	0	0	-135.284	40.159	43.798	-121.38	30.076	161.822	-167.361	-68.729	43.54
5	0.05	-100.19	-9.6	163.15	-156.205	-249.528	179.916	-141.494	-246.857	208.479	-46.816	-153.158	-8.669	-46.816	31.938	-8.669	0	0	0	-135.108	40.2	43.843	-121.248	30.14	161.875	-167.173	-68.691	43.593
6	0.06	-100.198	-9.501	162.779	-156.219	-249.425	179.591	-141.497	-246.751	208.148	-46.816	-153.158	-8.669	-46.816	31.938	-8.669	0	0	0	-135.013	40.231	43.808	-121.165	30.184	161.842	-167.093	-68.656	43.569
7	0.07	-100.051	-9.542	162.384	-156.117	-249.452	179.243	-141.382	-246.778	207.794	-46.816	-153.158	-8.669	-46.816	31.938	-8.669	0	0	0	-135.048	40.222	43.766	-121.205	30.184	161.802	-167.16	-68.656	43.54
8	0.08	-99.908	-9.684	162.274	-156.064	-249.571	179.151	-141.329	-246.901	207.702	-46.816	-153.158	-8.669	-46.816	31.938	-8.669	0	0	0	-135.189	40.156	43.778	-121.371	30.123	161.817	-167.331	-68.713	43.554
9	0.09	-99.929	-9.822	162.393	-156.189	-249.687	179.232	-141.467	-247.025	207.79	-46.816	-153.158	-8.669	-46.816	31.938	-8.669	0	0	0	-135.308	40.111	43.859	-121.541	30.077	161.904	-167.459	-68.755	43.622
10	0.1	-100.047	-9.915	162.531	-156.408	-249.76	179.332	-141.698	-247.104	207.897	-46.816	-153.158	-8.669	-46.816	31.938	-8.669	0	0	0	-135.286	40.091	43.976	-121.572	30.054	162.027	-167.44	-68.775	43.721
11	0.11	-100.129	-9.972	162.581	-156.579	-249.793	179.422	-141.877	-247.136	207.991	-46.816	-153.158	-8.669	-46.816	31.938	-8.669	0	0	0	-135.192	39.998	44.011	-121.505	29.961	162.065	-167.372	-68.86	43.752
12	0.12	-100.175	-9.976	162.592	-156.683	-249.775	179.54	-141.989	-247.106	208.112	-46.816	-153.158	-8.669	-46.816	31.938	-8.669	0	0	0	-135.178	39.862	43.938	-121.492	29.833	161.993	-167.396	-68.985	43.692
13	0.13	-100.26	-9.9	162.697	-156.794	-249.688	179.729	-142.114	-247.006	208.308	-46.816	-153.158	-8.669	-46.816	31.938	-8.669	0	0	0	-135.249	39.833	43.902	-121.568	29.82	161.958	-167.48	-69.01	43.67
14	0.14	-100.393	-9.742	162.869	-156.937	-249.527	179.912	-142.272	-246.841	208.498	-46.816	-153.158	-8.669	-46.816	31.938	-8.669	0	0	0	-135.322	39.948	43.955	-121.672	29.949	162.016	-167.536	-68.9	43.726
15	0.15	-100.448	-9.52	162.936	-156.977	-249.311	179.937	-142.323	-246.626	208.529	-46.816	-153.158	-8.669	-46.816	31.938	-8.669	0	0	0	-135.342	40.071	43.959	-121.731	30.072	162.025	-167.539	-68.782	43.717
16	0.16	-100.304	-9.284	162.862	-156.786	-249.091	179.802	-142.138	-246.409	208.397	-46.816	-153.158	-8.669	-46.816	31.938	-8.669	0	0	0	-135.294	40.036	43.876	-121.714	30.02	161.944	-167.5	-68.814	43.61
17	0.17	-100.09	-9.093	162.749	-156.535	-248.912	179.63	-141.891	-246.234	208.227	-46.816	-153.158	-8.669	-46.816	31.938	-8.669	0	0	0	-135.296	39.877	43.849	-121.756	29.839	161.92	-167.534	-68.964	43.557
18	0.18	-100.095	-8.993	162.656	-156.574	-248.808	179.487	-141.935	-246.136	208.087	-46.816	-153.158	-8.669	-46.816	31.938	-8.669	0	0	0	-135.48	39.782	43.941	-121.999	29.733	162.018	-167.749	-69.05	43.628
19	0.19	-100.362	-9.019	162.645	-156.96	-248.809	179.43	-142.33	-246.147	208.036	-46.816	-153.158	-8.669	-46.816	31.938	-8.669	0	0	0	-135.711	39.782	44.014	-122.286	29.736	162.098	-168.007	-69.041	43.692
20	0.2	-100.636	-9.133	162.78	-157.387	-248.889	179.531	-142.773	-246.236	208.146	-46.816	-153.158	-8.669	-46.816	31.938	-8.669	0	0	0	-135.748	39.77	43.926	-122.351	29.729	162.013	-168.081	-69.043	43.606
21	0.21	-100.75	-9.188	162.946	-157.618	-248.918	179.679	-143.019	-246.27	208.302	-46.816	-153.158	-8.669	-46.816	31.938	-8.669	0	0	0	-135.594	39.778	43.728	-122.2	29.738	161.815	-167.96	-69.024	43.412
22	0.22	-100.791	-9.055	162.92	-157.689	-248.778	179.647	-143.101	-246.129	208.276	-46.816	-153.158	-8.669	-46.816	31.938	-8.669	0	0	0	-135.435	39.914	43.582	-122.052	29.868	161.67	-167.803	-68.888	43.259
23	0.23	-100.892	-8.83	162.662	-157.771	-248.556	179.404	-143.188	-245.903	208.035	-46.816	-153.158	-8.669	-46.816	31.938	-8.669	0	0	0	-135.391	40.082	43.574	-122.051	30.027	161.666	-167.74	-68.726	43.228
24	0.24	-101.031	-8.697	162.395	-157.922	-248.419	179.158	-143.341	-245.764	207.79	-46.816	-153.158	-8.669	-46.816	31.938	-8.669	0	0	0	-135.42	40.116	43.691	-122.146	30.045	161.789	-167.771	-68.691	43.313
25	0.25	-101.122	-8.662	162.328	-158.062	-248.373	179.076	-143.492	-245.72	207.713	-46.816	-153.158	-8.669	-46.816	31.938	-8.669	0	0	0	-135.432	40.063	43.871	-122.216	29.972	161.974	-167.807	-68.736	43.461
26	0.26	-101.197	-8.709	162.374	-158.21	-248.407	179.071	-143.656	-245.759	207.717	-46.816	-153.158	-8.669	-46.816	31.938	-8.669	0	0	0	-135.429	40.062	44.028	-122.238	29.962	162.133	-167.825	-68.731	43.605
27	0.27	-101.327	-8.955	162.331	-158.482	-248.622	178.98	-143.938	-245.985	207.633	-46.816	-153.158	-8.669	-46.816	31.938	-8.669	0	0	0	-135.448	40.07	44.116	-122.26	29.974	162.221	-167.873	-68.714	43.7
28	0.28	-101.495	-9.381	162.179	-158.876	-248.996	178.798	-144.333	-246.376	207.453	-46.816	-153.158	-8.669	-46.816	31.938	-8.669	0	0	0	-135.448	39.929	44.147	-122.259	29.835	162.252	-167.926	-68.84	43.741
29	0.29	-101.573	-9.733	161.98	-159.172	-249.297	178.577	-144.628	-246.692	207.232	-46.816	-153.158	-8.669	-46.816	31.938	-8.669	0	0	0	-135.321	39.658	44.159	-122.146	29.557	162.266	-167.867	-69.09	43.752
30	0.3	-101.438	-9.806	161.691	-159.142	-249.347	178.268	-144.597	-246.751	206.923	-46.816	-153.158	-8.669	-46.816	31.938	-8.669	0	0	0	-135.061	39.447	44.209	-121.919	29.328	162.318	-167.668	-69.283	43.785
31	0.31	-101.223	-9.71	161.363	-158.944	-249.249	177.912	-144.395	-246.658	206.565	-46.816	-153.158	-8.669	-46.816	31.938	-8.669	0	0	0	-134.804	39.359	44.36	-121.706	29.225	162.472	-167.46	-69.356	43.916
32	0.32	-101.139	-9.723	161.227	-158.91	-249.253	177.735	-144.358	-246.671	206.388	-46.816	-153.158	-8.669	-46.816	31.938	-8.669	0	0	0	-134.635	39.32	44.583	-121.577	29.175	162.699	-167.332	-69.383	44.124
33	0.33	-101.157	-9.934	161.322	-159.062	-249.434	177.783	-144.508	-246.866	206.436	-46.816	-153.158	-8.669	-46.816	31.938	-8.669	0	0	0	-134.528	39.34	44.719	-121.486	29.182	162.836	-167.249	-69.356	44.248
